<?xml version="1.0" ?><svg xmlns="http://www.w3.org/2000/svg" viewBox="0 0 511.81 511.95"><g id="Layer_2" data-name="Layer 2"><g id="scythe"><path d="M75.57,512A59.94,59.94,0,0,1,15.75,452a61.61,61.61,0,0,1,14.36-39.35V81.46L4.39,55.73A15,15,0,0,1,0,45.12V15A15,15,0,0,1,15,0h90.35a15,15,0,0,1,15,15V412.39A59.86,59.86,0,0,1,75.57,512ZM30,38.91,55.71,64.64A15,15,0,0,1,60.1,75.25V418.57a15,15,0,0,1-4.63,10.84A31.53,31.53,0,0,0,45.74,452a29.83,29.83,0,1,0,59.66,0,29.32,29.32,0,0,0-10-22.24,15,15,0,0,1-5.06-11.23V30H30Z"/><path d="M105.35,182.62a15,15,0,0,1-8.69-27.23A459.39,459.39,0,0,1,221.47,93.46c83-26.49,159.64-24.66,214.37-16.7a314.82,314.82,0,0,0-122.23-44C216.26,19.28,141.08,58.2,113.28,75.56A15,15,0,0,1,97.4,50.11C128,31,210.66-11.78,317.73,3.07,423.82,17.79,489.77,77,507.45,94.79a15,15,0,0,1-14.95,24.94c-39.43-11.86-143.88-35.38-261.92,2.3A428.77,428.77,0,0,0,114,179.86,15,15,0,0,1,105.35,182.62Z"/><path d="M105.34,391.46H45.11a15,15,0,0,1,0-30h60.23a15,15,0,0,1,0,30Z"/><path d="M105.34,331.22H45.11a15,15,0,0,1,0-30h60.23a15,15,0,0,1,0,30Z"/></g></g></svg>